:SAMPLES-PER-SECOND 30
:FULLY-SPECIFIED
:DEGREES
80
root  31.7316 36.3944 29.0406 57.912 -81.8705 -57.2471
RightUpLeg  -6.82483 -7.70552 6.56015
RightLeg  42.2312 -2.96745 -3.23891
RightFoot  -30.0825 -0.00875322 1.22388
RightToes  1.16414e-010 0 -3.6325e-017
Spine  7.55467 0.231236 21.3358
Spine1  5.2281 3.95338 -4.51256
HEad  -17.4375 -6.16525 -1.1881
LeftShoulder1  8.74856 -12.1654 -48.7338
LeftArm  3.22511 30.7552 -23.4643
LeftForeArm  173.576 -61.703 -161.985
LeftHand  -0.244104 0.0205437 5.32207
RightShoulder  6.34792 9.74403 41.6764
RightArm  -1.15472 -11.8722 36.4075
RightForeArm  151.508 66.3959 155.532
RightHand  0.173959 -8.54721 -7.69055
LeftUpLeg  -29.8917 10.3266 11.9034
LeftLeg  71.9474 -3.9422 -12.6927
LeftFoot  -7.20929 0.142061 -2.72028
LeftToes  9.04034e-010 7.59002e-011 -1.12606e-011
81
root  28.9771 37.6803 29.2756 31.0876 -83.458 -29.4147
RightUpLeg  0.239745 -8.96123 1.29
RightLeg  34.2613 -1.3593 -1.30085
RightFoot  -23.7168 0.383606 5.29257
RightToes  1.16414e-010 0 -3.6325e-017
Spine  5.196 2.22537 17.3531
Spine1  4.47328 5.291 -7.02126
HEad  -12.925 -9.79348 0.615635
LeftShoulder1  8.28121 -11.8524 -47.0549
LeftArm  5.24299 35.8862 -20.9666
LeftForeArm  175.474 -59.8141 -163.433
LeftHand  -0.244104 0.0205437 5.32207
RightShoulder  6.21843 9.45952 41.7228
RightArm  2.07006 -12.4701 37.5793
RightForeArm  153.46 63.3295 158.73
RightHand  0.135888 -7.90502 -7.63906
LeftUpLeg  -30.5939 12.9435 6.01348
LeftLeg  59.6114 -6.45904 -11.2448
LeftFoot  -8.36715 0.13603 -3.27596
LeftToes  9.04034e-010 7.59002e-011 -1.12606e-011
82
root  26.3206 38.8609 29.6251 8.46636 -82.7627 -5.73855
RightUpLeg  5.26627 -11.4319 -3.09678
RightLeg  28.4927 1.02191 0.374885
RightFoot  -12.5611 0.024753 9.10205
RightToes  1.16414e-010 0 -3.6325e-017
Spine  2.58635 3.47621 14.4205
Spine1  4.57856 6.02788 -8.80441
HEad  -9.45098 -12.3234 1.57174
LeftShoulder1  8.145 -11.9192 -46.0544
LeftArm  4.98635 40.805 -19.3623
LeftForeArm  176.524 -57.9857 -164.629
LeftHand  -0.244104 0.0205437 5.32207
RightShoulder  6.07028 9.28856 41.2394
RightArm  6.75182 -12.3519 37.5635
RightForeArm  157.131 61.785 160.336
RightHand  0.0471028 -7.89236 -4.44576
LeftUpLeg  -30.2937 16.247 0.649216
LeftLeg  45.8297 -10.4293 -10.8211
LeftFoot  -8.58714 0.126559 -3.11146
LeftToes  9.04034e-010 7.59002e-011 -1.12606e-011
83
root  23.8098 39.6816 30.0441 0.620167 -81.8552 2.23182
RightUpLeg  7.77046 -11.6296 -5.43203
RightLeg  27.7428 1.88705 0.838669
RightFoot  -0.707627 -0.887722 9.68152
RightToes  1.16414e-010 0 -3.6325e-017
Spine  1.33657 4.16705 12.8289
Spine1  5.22172 6.56179 -9.68329
HEad  -7.26809 -13.8852 1.07339
LeftShoulder1  8.29594 -12.288 -45.8046
LeftArm  2.71351 44.5748 -19.2456
LeftForeArm  175.908 -56.6252 -165.333
LeftHand  -0.244104 0.0205437 5.32207
RightShoulder  6.02516 9.48858 40.2264
RightArm  11.2085 -12.1785 37.1266
RightForeArm  162.857 60.7586 161.639
RightHand  -0.0657864 -9.17985 0.555056
LeftUpLeg  -28.9411 19.8037 -3.46128
LeftLeg  33.8524 -17.0903 -11.6376
LeftFoot  -9.56666 0.107768 -3.3564
LeftToes  9.04034e-010 7.59002e-011 -1.12606e-011
84
root  21.4557 40.0097 30.4523 -2.5639 -81.5596 4.54492
RightUpLeg  7.91738 -7.41122 -5.42157
RightLeg  32.5363 0.54448 0.0963337
RightFoot  5.88454 -1.29033 8.74009
RightToes  1.16414e-010 0 -3.6325e-017
Spine  2.02644 4.49598 11.5559
Spine1  5.662 6.89899 -9.73522
HEad  -7.05756 -14.4918 0.912614
LeftShoulder1  8.44163 -12.6088 -45.6792
LeftArm  -0.702328 46.2707 -21.1088
LeftForeArm  175.573 -56.0791 -165.592
LeftHand  -0.244104 0.0205437 5.32207
RightShoulder  6.20233 9.9786 39.8694
RightArm  14.8063 -12.0206 35.6326
RightForeArm  165.949 60.3296 162.224
RightHand  -0.149505 -9.4062 2.75256
LeftUpLeg  -27.147 23.0893 -6.25688
LeftLeg  25.7715 -24.2595 -11.9667
LeftFoot  -10.8422 0.0855527 -3.96967
LeftToes  9.04034e-010 7.59002e-011 -1.12606e-011
85
root  19.1949 39.8308 30.8467 -5.19025 -81.4214 6.09018
RightUpLeg  6.26533 -2.06538 -4.77037
RightLeg  41.4431 -0.875643 -1.12058
RightFoot  6.80532 -1.36369 8.821
RightToes  1.16414e-010 0 -3.6325e-017
Spine  3.49542 4.41718 9.88004
Spine1  5.62932 6.72412 -9.00145
HEad  -7.95574 -14.3235 1.499
LeftShoulder1  8.41934 -12.7266 -45.2106
LeftArm  -4.19451 46.2606 -24.1485
LeftForeArm  176.999 -55.7931 -165.853
LeftHand  -0.244104 0.0205437 5.32207
RightShoulder  6.43754 10.3783 40.223
RightArm  17.4938 -11.7162 33.5311
RightForeArm  165.834 60.8489 161.856
RightHand  -0.122863 -8.35457 2.87062
LeftUpLeg  -25.8317 25.3797 -7.93454
LeftLeg  22.7873 -27.618 -11.8396
LeftFoot  -9.56197 0.0958743 -3.01357
LeftToes  9.04034e-010 7.59002e-011 -1.12606e-011
